{"asset":{"version":"2.0","generator":"THREE.JS GLTFExporter"},"scenes":[{"nodes":[0],"name":"AuxScene"}],"scene":0,"nodes":[{"mesh":0}],"meshes":[{"primitives":[{"mode":4,"attributes":{"POSITION":0,"NORMAL":1},"material":0}]}],"materials":[{"pbrMetallicRoughness":{"baseColorFactor":[0.5019607843137255,0.5019607843137255,0.5019607843137255,1],"metallicFactor":0,"roughnessFactor":1}}],"accessors":[{"bufferView":0,"componentType":5126,"count":1962,"max":[41.400001525878906,5,32.900001525878906],"min":[-32.400001525878906,0.20000000298023224,-30.899999618530273],"type":"VEC3"},{"bufferView":1,"componentType":5126,"count":1962,"max":[0,1,0],"min":[0,1,0],"type":"VEC3"}],"bufferViews":[{"buffer":0,"byteOffset":0,"byteLength":23544,"byteStride":12,"target":34962},{"buffer":0,"byteOffset":23544,"byteLength":23544,"byteStride":12,"target":34962}],"buffers":[{"byteLength":47088,"uri":"data:application/octet-stream;base64,"}]}