{"asset":{"version":"2.0","generator":"THREE.JS GLTFExporter"},"scenes":[{"nodes":[0],"name":"AuxScene"}],"scene":0,"nodes":[{"mesh":0}],"meshes":[{"primitives":[{"mode":4,"attributes":{"POSITION":0,"NORMAL":1},"material":0}]}],"materials":[{"pbrMetallicRoughness":{"baseColorFactor":[0.5019607843137255,0.5019607843137255,0.5019607843137255,1],"metallicFactor":0,"roughnessFactor":1}}],"accessors":[{"bufferView":0,"componentType":5126,"count":1776,"max":[19.400009155273438,2.200000047683716,49.30000305175781],"min":[-79.5999984741211,0.20000000298023224,-49.400001525878906],"type":"VEC3"},{"bufferView":1,"componentType":5126,"count":1776,"max":[0,1,0],"min":[0,1,0],"type":"VEC3"}],"bufferViews":[{"buffer":0,"byteOffset":0,"byteLength":21312,"byteStride":12,"target":34962},{"buffer":0,"byteOffset":21312,"byteLength":21312,"byteStride":12,"target":34962}],"buffers":[{"byteLength":42624,"uri":"data:application/octet-stream;base64,"}]}