{
    "accessors" : [
        {
            "bufferView" : 0,
            "componentType" : 5125,
            "count" : 323610,
            "max" : [
                309211
            ],
            "min" : [
                0
            ],
            "type" : "SCALAR"
        },
        {
            "bufferView" : 1,
            "componentType" : 5126,
            "count" : 309212,
            "max" : [
                12.5,
                8.5,
                12.5
            ],
            "min" : [
                -12.5,
                -20.0,
                -12.5
            ],
            "type" : "VEC3"
        },
        {
            "bufferView" : 2,
            "componentType" : 5126,
            "count" : 309212,
            "max" : [
                0.9999997615814209,
                0.9999952912330627,
                0.9999997615814209
            ],
            "min" : [
                -0.9999997615814209,
                -1.0,
                -0.9999997615814209
            ],
            "type" : "VEC3"
        }
    ],
    "asset" : {
        "generator" : "Khronos Blender glTF 2.0 exporter",
        "version" : "2.0"
    },
    "bufferViews" : [
        {
            "buffer" : 0,
            "byteLength" : 1294440,
            "byteOffset" : 0,
            "target" : 34963
        },
        {
            "buffer" : 0,
            "byteLength" : 3710544,
            "byteOffset" : 1294440,
            "target" : 34962
        },
        {
            "buffer" : 0,
            "byteLength" : 3710544,
            "byteOffset" : 5004984,
            "target" : 34962
        }
    ],
    "buffers" : [
        {
            "byteLength" : 8715528,
            "uri" : "pinky.bin"
        }
    ],
    "materials" : [
        {
            "name" : "Material.002",
            "pbrMetallicRoughness" : {
                "baseColorFactor" : [
                    0.5887769786831285,
                    0.2578883209509897,
                    0.640000066757203,
                    1.0
                ],
                "metallicFactor" : 0.0
            }
        }
    ],
    "meshes" : [
        {
            "name" : "Ghost",
            "primitives" : [
                {
                    "attributes" : {
                        "NORMAL" : 2,
                        "POSITION" : 1
                    },
                    "indices" : 0,
                    "material" : 0
                }
            ]
        }
    ],
    "nodes" : [
        {
            "mesh" : 0,
            "name" : "Ghost"
        }
    ],
    "scene" : 0,
    "scenes" : [
        {
            "name" : "Scene",
            "nodes" : [
                0
            ]
        }
    ]
}
